<svg xmlns="http://www.w3.org/2000/svg" width="14.938" height="18.782" viewBox="0 0 14.938 18.782">
  <defs>
    <style>
      .cls-1 {
        fill: #90a4ae;
        fill-rule: evenodd;
      }
    </style>
  </defs>
  <path id="_03.svg" data-name="03.svg" class="cls-1" d="M8.055,264.355h2.188a0.32,0.32,0,0,0,.392-0.309,0.331,0.331,0,0,0-.392-0.349q-1.094-.009-2.188,0a0.328,0.328,0,0,0-.378.333A0.316,0.316,0,0,0,8.055,264.355ZM8.1,265.688c0.458,0,.917,0,1.375,0s0.937,0,1.4,0a0.338,0.338,0,0,0,.416-0.321c0.006-.281-0.2-0.335-0.425-0.341-0.149,0-.3,0-0.448,0-0.767,0-1.535,0-2.3,0-0.313,0-.468.128-0.448,0.351A0.35,0.35,0,0,0,8.1,265.688Zm3.443,0.667c-0.569,0-1.138,0-1.707,0s-1.158,0-1.737,0c-0.238,0-.433.061-0.424,0.338a0.347,0.347,0,0,0,.42.323q1.722,0,3.444,0a0.346,0.346,0,0,0,.424-0.348A0.332,0.332,0,0,0,11.546,266.355Zm9.386-13.442a3.166,3.166,0,0,0-.31-1.962,1.437,1.437,0,0,0-2.124-.518,2.209,2.209,0,0,0-.6.525c-0.385.54-.738,1.1-1.081,1.671-0.2.324-.345,0.676-0.54,1.065a2.343,2.343,0,0,0-.853-1.146,0.782,0.782,0,0,1-.272-0.323,1.637,1.637,0,0,0-1-.963A0.516,0.516,0,0,1,13.9,251a1.133,1.133,0,0,0-1.4-.647,0.727,0.727,0,0,1-.43.006,1.241,1.241,0,0,0-1.5.664,0.623,0.623,0,0,1-.274.275,1.614,1.614,0,0,0-.88,1.136,0.485,0.485,0,0,1-.237.285,1.571,1.571,0,0,0-.97,1.2A5.3,5.3,0,0,1,8,255.558a0.778,0.778,0,0,0,0,.266,1.334,1.334,0,0,1-.02.151A10.157,10.157,0,0,0,7,255.589a0.362,0.362,0,0,0-.533.259,0.379,0.379,0,0,0,.431.386,0.92,0.92,0,0,1,.672.413c-0.253.11-.5,0.2-0.721,0.319a1.427,1.427,0,0,0-.835,1.249c-0.012.4-.018,0.806,0,1.207,0.042,0.742.108,1.483,0.161,2.223q0.194,2.717.385,5.431a1.892,1.892,0,0,0,1.825,1.851q4.737,0.019,9.474,0a1.775,1.775,0,0,0,1.773-1.55c0.1-.776.148-1.558,0.207-2.338,0.07-.92.128-1.84,0.19-2.76,0.075-1.128.154-2.255,0.219-3.383a0.4,0.4,0,0,0-.114-0.322c-0.276-.144-0.2-0.343-0.138-0.552A22.312,22.312,0,0,0,20.932,252.913ZM15.9,258.075a1.3,1.3,0,0,1,1.236-.822c0.074,0.014.211,0.035,0.347,0.064a0.572,0.572,0,0,0,.7-0.3c0.117-.222.261-0.381,0.512-0.234s0.169,0.371.058,0.575a1.241,1.241,0,0,1-1.341.616,0.666,0.666,0,0,0-.936.378,0.48,0.48,0,0,1-.4.129A0.282,0.282,0,0,1,15.9,258.075Zm-6.931-3.3a0.986,0.986,0,0,1,.868-1.507c0.273-.021.334-0.08,0.276-0.354a0.811,0.811,0,0,1,.743-1.063c0.172-.034.312-0.066,0.3-0.285a0.509,0.509,0,0,1,.325-0.55,0.588,0.588,0,0,1,.681.164,1.176,1.176,0,0,0,.133.106,0.985,0.985,0,0,1,.253-0.189,0.817,0.817,0,0,1,.5-0.071,0.526,0.526,0,0,1,.249.414c-0.015.322,0.068,0.426,0.406,0.418a0.874,0.874,0,0,1,.876.818,0.344,0.344,0,0,0,.265.328,1.2,1.2,0,0,1,.578,1.809c-0.247-.145-0.509-0.285-0.749-0.453a0.42,0.42,0,0,1-.01-0.276,2.244,2.244,0,0,0,.092-0.624,0.782,0.782,0,0,0-1.094-.6c-0.555.116-1.107,0.245-1.661,0.364a0.735,0.735,0,0,0-.679.65,0.865,0.865,0,0,0,.429.883,0.5,0.5,0,0,1,.1.092l-0.773,1.485a7.15,7.15,0,0,0-1.043-.665,1.4,1.4,0,0,0-1.279.2c-0.175-.28-0.123-0.42.321-0.864Zm5.331,2.246c-0.405.144-.745,0.462-1.146,0.628a2.838,2.838,0,0,1-.9.129,0.3,0.3,0,0,1-.23-0.174c-0.091-.344-0.15-0.7-0.22-1.044a1.86,1.86,0,0,1,.445-1.027,7.116,7.116,0,0,0,.315-0.65,0.394,0.394,0,0,1,.2-0.18c0.178-.06.37-0.079,0.552-0.129a0.633,0.633,0,0,1,.859.237,2.132,2.132,0,0,0,.667.433c0.457,0.3.458,0.391,0.279,0.9A1.263,1.263,0,0,1,14.3,257.017Zm0.17,0.734-0.362,1.105c-0.409-.093-0.786-0.194-1.169-0.256a2.786,2.786,0,0,0-.467.062,0.366,0.366,0,0,1-.27-0.159,3.631,3.631,0,0,0,2.222-.815Zm5.018,3.092c-0.07,1.038-.151,2.075-0.228,3.113-0.079,1.067-.148,2.136-0.241,3.2a1.226,1.226,0,0,1-1.323,1.114c-1.449,0-2.9,0-4.346,0H8.674a1.254,1.254,0,0,1-1.451-1.3c-0.121-1.442-.206-2.887-0.307-4.331q-0.109-1.557-.217-3.115a1.072,1.072,0,0,1,.013-0.165,9.082,9.082,0,0,0,.9.329,1.728,1.728,0,0,0,1.328-.2,1.275,1.275,0,0,1,1.429.011,1.815,1.815,0,0,0,1.982-.046,1.138,1.138,0,0,1,1.268.007,1.852,1.852,0,0,0,2.06,0,1.09,1.09,0,0,1,1.213-.033,1.923,1.923,0,0,0,2.065.081c0.18-.095.375-0.16,0.608-0.257C19.537,259.819,19.523,260.331,19.488,260.843Zm0.065-5.808a1.211,1.211,0,0,1-1.12.657,0.589,0.589,0,0,1-.178,0,0.727,0.727,0,0,0-1.015.392,0.432,0.432,0,0,1-.379.1,0.289,0.289,0,0,1-.172-0.412,1.241,1.241,0,0,1,1.228-.813,2.662,2.662,0,0,1,.352.063,0.577,0.577,0,0,0,.7-0.307c0.152-.26.343-0.353,0.52-0.233A0.374,0.374,0,0,1,19.553,255.035ZM18.967,253.5c-0.068-.014-0.156-0.029-0.243-0.048a0.492,0.492,0,0,0-.646.268,0.31,0.31,0,0,1-.448.166A0.332,0.332,0,0,1,17.5,253.4a1.09,1.09,0,0,1,1.293-.6,0.474,0.474,0,0,0,.615-0.262,0.311,0.311,0,0,1,.465-0.171,0.329,0.329,0,0,1,.114.488A1.128,1.128,0,0,1,18.967,253.5Zm-5.3,12.876a0.919,0.919,0,0,0-.353-0.009v0a1.055,1.055,0,0,0-.382.01,0.421,0.421,0,0,0-.252.265,0.4,0.4,0,0,0,.206.324,2.8,2.8,0,0,0,.848,0,0.392,0.392,0,0,0,.219-0.319A0.5,0.5,0,0,0,13.67,266.372Z" transform="translate(-6 -250.156)"/>
</svg>
