<svg xmlns="http://www.w3.org/2000/svg" width="16.594" height="17.594" viewBox="0 0 16.594 17.594">
  <defs>
    <style>
      .cls-1 {
        fill: #90a4ae;
        fill-rule: evenodd;
      }
    </style>
  </defs>
  <path id="_06.svg" data-name="06.svg" class="cls-1" d="M18.915,177.163l0.061,0.055c0.034,0.056.065,0.115,0.1,0.169a0.491,0.491,0,0,1,.1.126,0.152,0.152,0,0,1-.1.1,0.239,0.239,0,0,1-.148-0.088,2.437,2.437,0,0,1-.162-0.263ZM13.484,166.8c0.33,0,.661,0,0.992,0a1.446,1.446,0,0,1,1.514,1.343,4.637,4.637,0,0,1,.019.751,0.232,0.232,0,0,0,.264.289,0.541,0.541,0,0,0,.641-0.38,2.022,2.022,0,0,1,1.533-1.188,2.493,2.493,0,0,1,2.318.535,1.864,1.864,0,0,1-.612,3.177,2.508,2.508,0,0,1-2.774-.42,2.3,2.3,0,0,1-.524-0.764,0.333,0.333,0,0,0-.362-0.241c-0.585.01-.482-0.033-0.477,0.493a1.772,1.772,0,0,1-.539,1.537,2.756,2.756,0,0,1-.247.174,0.7,0.7,0,0,0-.3.2,1.8,1.8,0,0,0,0,.634,0.385,0.385,0,0,0,.238.151,5.587,5.587,0,0,1,3.652,3.546,5.741,5.741,0,0,1-3.877,7.508A5.732,5.732,0,0,1,7.8,178.114a5.718,5.718,0,0,1,3.965-5.011c0.144-.048.306-0.075,0.275-0.276-0.036-.23.146-0.522-0.208-0.668a1.5,1.5,0,0,1-.9-1.492,4.4,4.4,0,0,1,0-.5,0.2,0.2,0,0,0-.247-0.261,0.333,0.333,0,0,1-.236-0.042,0.552,0.552,0,0,1-.2-0.344,0.513,0.513,0,0,1,.314-0.311c0.365-.092.368-0.07,0.37-0.471a2.022,2.022,0,0,1,.351-1.393,1.44,1.44,0,0,1,1.1-.538C12.749,166.794,13.117,166.8,13.484,166.8ZM8.505,178.591a4.968,4.968,0,1,0,9.935-.012A4.968,4.968,0,1,0,8.505,178.591Zm5.667-5.724c0.008-.111.008-0.176,0.018-0.239,0.042-.272-0.076-0.36-0.339-0.342-0.283.019-.568,0.008-0.852,0a0.2,0.2,0,0,0-.243.246c0,0.341.016,0.359,0.36,0.316a2.646,2.646,0,0,1,.356-0.017C13.7,172.84,13.924,172.855,14.172,172.867Zm-7.622.045a1.16,1.16,0,0,1-.275-0.3,0.34,0.34,0,0,1,.194-0.438l1.764-1.019c0.223-.129.445-0.259,0.669-0.385a0.365,0.365,0,0,1,.531.1,0.348,0.348,0,0,1-.157.515c-0.822.486-1.651,0.96-2.478,1.437A2.2,2.2,0,0,1,6.551,172.912Zm0.028-6.147c0.136,0.065.23,0.1,0.316,0.151q1.144,0.659,2.287,1.319a1.306,1.306,0,0,1,.116.074,0.355,0.355,0,0,1,.13.506,0.329,0.329,0,0,1-.48.121c-0.846-.478-1.69-0.961-2.52-1.468a0.509,0.509,0,0,1-.141-0.427A0.767,0.767,0,0,1,6.579,166.765Zm0.04,3.319c-0.449,0-.9,0-1.346,0-0.314,0-.458-0.113-0.463-0.348a0.365,0.365,0,0,1,.446-0.368q1.345-.007,2.691,0a0.377,0.377,0,0,1,.451.369c0,0.236-.149.347-0.462,0.348C7.5,170.085,7.058,170.084,6.619,170.084Zm6.869,8.411c1.312,0,2.624,0,3.935-.006,0.241,0,.31.059,0.3,0.315a4.248,4.248,0,0,1-8.423.606c-0.038-.209-0.021-0.427-0.061-0.635-0.045-.239.05-0.285,0.262-0.284C10.828,178.5,12.158,178.5,13.488,178.5Z" transform="translate(-4.813 -166.75)"/>
</svg>
