<svg xmlns="http://www.w3.org/2000/svg" width="19" height="20" viewBox="0 0 19 20">
  <defs>
    <style>
      .cls-1 {
        fill: #90a4ae;
        fill-rule: evenodd;
      }
    </style>
  </defs>
  <path id="_02.svg" data-name="02.svg" class="cls-1" d="M9.737,296.173c-0.293,0-.4-0.255-0.342-0.819a26.941,26.941,0,0,1,.5-2.782c0.093-.447.254-0.88,0.354-1.22l2.673,2.625a11.279,11.279,0,0,1-2.607,2.014,1.424,1.424,0,0,1-.578.182m7.3-6.634c-0.3-.782-0.559-1.515-0.867-2.224-0.673-1.545-1.367-3.079-2.067-4.61a0.35,0.35,0,0,1,.062-0.468,3.469,3.469,0,0,1,2.554-1.113,3.427,3.427,0,0,1,3.34,2.5,2.941,2.941,0,0,1-.213,2.127l-1.64-.956-0.394.736,1.646,0.971-2.421,3.041M7.789,279.422a1.037,1.037,0,0,0,.577-0.461c0.071,0.283.137,0.542,0.2,0.8s0.127,0.54.181,0.769c-0.46.289-.893,0.568-1.336,0.831a0.422,0.422,0,0,1-.2.054,0.26,0.26,0,0,1-.095-0.016c-0.432-.163-0.857-0.35-1.336-0.55,0.189-.14.333-0.241,0.47-0.351a0.506,0.506,0,0,0,.05-0.84c-0.138-.14-0.28-0.273-0.433-0.421a0.479,0.479,0,0,1,.14-0.02,1.287,1.287,0,0,1,.373.078,1.306,1.306,0,0,0,.367.077,0.489,0.489,0,0,0,.44-0.3,1.32,1.32,0,0,0,.606.345M20.753,277a0.582,0.582,0,0,0-.388.236c-0.358.381-.719,0.759-1.093,1.153a6.392,6.392,0,0,0-.534-0.67,0.607,0.607,0,0,0-.378-0.164,0.26,0.26,0,0,0-.049,0,0.561,0.561,0,0,0-.293.318,2.713,2.713,0,0,0-.129.529l-0.439,1.921a5.706,5.706,0,0,0-.683-0.042,4.3,4.3,0,0,0-3.3,1.469,4.346,4.346,0,0,0-3.168-1.413,4.605,4.605,0,0,0-.58.037H9.713a0.339,0.339,0,0,1-.215-0.213c-0.177-.718-0.323-1.444-0.507-2.158a0.587,0.587,0,0,0-.306-0.385,0.19,0.19,0,0,0-.059-0.008,0.672,0.672,0,0,0-.392.18,5.626,5.626,0,0,0-.526.647c-0.4-.423-0.78-0.827-1.155-1.239a0.425,0.425,0,0,0-.3-0.171,0.386,0.386,0,0,0-.211.072,0.41,0.41,0,0,0-.165.528l0.217,0.693c-0.12-.022-0.2-0.032-0.277-0.052-0.438-.113-0.872-0.248-1.316-0.328a0.419,0.419,0,0,0-.063,0,0.5,0.5,0,0,0-.385.164,0.848,0.848,0,0,0,.007.528,0.6,0.6,0,0,0,.2.234c0.4,0.386.8,0.769,1.233,1.178a5.811,5.811,0,0,0-.688.51,0.733,0.733,0,0,0-.22.481,0.554,0.554,0,0,0,.326.317c0.592,0.26,1.195.493,1.8,0.738A4.155,4.155,0,0,0,6.912,287c0.853,1.106,1.734,2.189,2.613,3.272a0.4,0.4,0,0,1,.071.431c-0.2.621-.4,1.241-0.57,1.872a10.314,10.314,0,0,0-.461,3.048,1.178,1.178,0,0,0,1.115,1.361,1.786,1.786,0,0,0,.556-0.1,3,3,0,0,0,.786-0.36c0.848-.6,1.678-1.235,2.539-1.873,0.422,0.36.851,0.787,1.337,1.125a8.833,8.833,0,0,0,1.867,1.1,1.718,1.718,0,0,0,.593.117,1.054,1.054,0,0,0,1.031-1.19,5.344,5.344,0,0,0-.057-1.444c-0.264-1.214-.583-2.416-0.907-3.614a0.58,0.58,0,0,1,.12-0.6c0.86-1.086,1.726-2.169,2.546-3.288a3.973,3.973,0,0,0,.754-3.372,11.387,11.387,0,0,0-.548-1.439c0.571-.241,1.182-0.492,1.787-0.758a0.421,0.421,0,0,0,.084-0.787c-0.222-.168-0.452-0.326-0.7-0.507l1.306-1.262a0.469,0.469,0,0,0,.171-0.617,0.364,0.364,0,0,0-.34-0.2,0.922,0.922,0,0,0-.229.036c-0.483.133-.97,0.247-1.512,0.382,0.091-.248.153-0.437,0.229-0.62a0.468,0.468,0,0,0-.132-0.651,0.368,0.368,0,0,0-.2-0.068" transform="translate(-4 -277)"/>
</svg>
