<svg xmlns="http://www.w3.org/2000/svg" width="15.656" height="16.313" viewBox="0 0 15.656 16.313">
  <defs>
    <style>
      .cls-1 {
        fill: #90a4ae;
        fill-rule: evenodd;
      }
    </style>
  </defs>
  <path id="_04.svg" data-name="04.svg" class="cls-1" d="M13.431,227.05c0.679-.522,1.375-1.095,2.108-1.612a7.208,7.208,0,0,1,2.5-1.2c1.667-.39,2.816.828,2.4,2.559a8.749,8.749,0,0,1-1.684,3.251c-0.645.848-1.336,1.658-1.952,2.417,0.572,0.6,1.153,1.183,1.705,1.8a0.765,0.765,0,0,1,.181.55c-0.043.264-.352,0.307-0.582,0.123a1.815,1.815,0,0,0-2.771.182c-1.068,1.114-2.16,2.2-3.2,3.35a2.616,2.616,0,0,1-3.959.028A24.866,24.866,0,0,1,6.4,236.534a2.666,2.666,0,0,1,.2-3.475c1.428-1.524,2.883-3.021,4.326-4.531a2.06,2.06,0,0,0,.556-2.3,2.281,2.281,0,0,0-.343-0.566,0.382,0.382,0,0,1-.01-0.586,0.359,0.359,0,0,1,.566.078C12.273,225.774,12.845,226.407,13.431,227.05Zm1.6,5a2.2,2.2,0,0,1,.524.073,0.566,0.566,0,0,0,.714-0.25c0.553-.672,1.153-1.305,1.674-2,0.533-.714.994-1.488,1.422-2.136a3.141,3.141,0,0,1-.554-0.484,0.456,0.456,0,0,1,.163-0.373,2.385,2.385,0,0,1,.658.063,1.615,1.615,0,0,0-.158-1.7,1.4,1.4,0,0,0-1.592-.161,2.571,2.571,0,0,1,0,.654,0.379,0.379,0,0,1-.332.17,3.018,3.018,0,0,1-.485-0.481,15.227,15.227,0,0,0-3.279,2.42,0.637,0.637,0,0,0-.069.385,6.289,6.289,0,0,1-.071,1.872,5.831,5.831,0,0,1-1.19,1.805c-1.056,1.18-2.178,2.294-3.268,3.44a3.292,3.292,0,0,0-.43.553,1.865,1.865,0,0,0,.411,2.405,1.773,1.773,0,0,0,2.384-.33q1.411-1.447,2.8-2.921a3.335,3.335,0,0,1,2.428-1.438,2.627,2.627,0,0,0-3.494-.2c-0.79.683-1.558,1.395-2.333,2.1-0.209.19-.426,0.4-0.687,0.127s-0.054-.5.155-0.69c0.674-.6,1.376-1.172,2.019-1.808a3.6,3.6,0,0,1,2.457-1.082ZM5.928,237c0.683,0.539.708,0.883,0.139,1.477l-0.188.2c-0.395.413-.366,0.681,0.13,0.969a0.37,0.37,0,0,0,.333-0.033,3.178,3.178,0,0,0,.41-0.411c0.57-.594.89-0.57,1.416,0.13a0.539,0.539,0,0,1-.226.115,1.164,1.164,0,0,0-.914.546,1.215,1.215,0,0,1-2.161-.62,1.424,1.424,0,0,1,.122-0.783,1.592,1.592,0,0,1,.4-0.474,1.025,1.025,0,0,0,.434-0.831A0.755,0.755,0,0,1,5.928,237Zm8.966-4.948c-0.043-.028-0.087-0.055-0.128-0.085a0.362,0.362,0,0,1-.118-0.592,0.528,0.528,0,0,1,.521-0.044c0.235,0.166.166,0.41-.036,0.6-0.037.035-.069,0.076-0.1,0.115Zm3.64-6.024a1.344,1.344,0,0,1,.111-0.48,0.323,0.323,0,0,1,.549,0,0.338,0.338,0,0,1-.035.515C18.981,226.242,18.81,226.249,18.534,226.027ZM18.1,227.166a0.32,0.32,0,0,1-.528,0,0.353,0.353,0,0,1,.03-0.55,0.314,0.314,0,0,1,.5,0A0.351,0.351,0,0,1,18.1,227.166Zm-2.616,2.227a0.371,0.371,0,1,1,.509-0.54,0.33,0.33,0,0,1,0,.512A0.3,0.3,0,0,1,15.486,229.393Zm-1.2,1.067a1.381,1.381,0,0,1,.117-0.487,0.324,0.324,0,0,1,.552,0,0.344,0.344,0,0,1-.041.519C14.739,230.671,14.566,230.667,14.29,230.46Zm-0.261-1.241a1.463,1.463,0,0,1,.119-0.623,0.994,0.994,0,0,1,.5-0.056,1.217,1.217,0,0,1-.008.555A1.306,1.306,0,0,1,14.028,229.219Zm2.311,1.68a1.29,1.29,0,0,1-.584-0.15,0.569,0.569,0,0,1-.011-0.508,0.3,0.3,0,0,1,.514,0A1.825,1.825,0,0,1,16.339,230.9Zm0.549-4.678a1.51,1.51,0,0,1-.118.641,0.965,0.965,0,0,1-.5.049,1.223,1.223,0,0,1,.019-0.55A1.3,1.3,0,0,1,16.888,226.221Zm0.821,2.43a1.518,1.518,0,0,1,.169-0.628,0.5,0.5,0,0,1,.487.009,0.311,0.311,0,0,1-.028.528A1.815,1.815,0,0,1,17.709,228.651Zm-3.75,2.427a0.987,0.987,0,0,1-.11.484,0.493,0.493,0,0,1-.483.03,0.316,0.316,0,0,1,0-.529,1.249,1.249,0,0,1,.476-0.1Zm1.85-3.585a0.994,0.994,0,0,1-.11.5,0.476,0.476,0,0,1-.484-0.027,0.523,0.523,0,0,1,.015-0.495,0.875,0.875,0,0,1,.469-0.1Zm1.6,1.674a0.983,0.983,0,0,1-.129.481,0.468,0.468,0,0,1-.474-0.024,0.526,0.526,0,0,1,.013-0.5,0.891,0.891,0,0,1,.478-0.085Zm-0.4-.795a0.9,0.9,0,0,1-.466-0.123,0.522,0.522,0,0,1,.011-0.5,0.465,0.465,0,0,1,.473.008,0.994,0.994,0,0,1,.1.491Z" transform="translate(-4.875 -224.156)"/>
</svg>
