<svg xmlns="http://www.w3.org/2000/svg" width="17" height="17" viewBox="0 0 17 17">
  <defs>
    <style>
      .cls-1 {
        fill: #90a4ae;
        fill-rule: evenodd;
      }
    </style>
  </defs>
  <path id="_05.svg" data-name="05.svg" class="cls-1" d="M7.189,211.06H6.227a8.615,8.615,0,0,0,.511-1.05,1.117,1.117,0,0,1,1.225-.868c0.046,0,.093,0,0.141,0,0.684,0.031,1.37.041,2.055,0.041,0.919,0,1.838-.018,2.757-0.026h0.01a0.418,0.418,0,0,1,.437.284c0.247,0.523.511,1.037,0.8,1.615l-0.594,0c-0.181,0-.356,0-0.531-0.011l-0.451-.977a0.546,0.546,0,0,0-.492-0.436,0.5,0.5,0,0,0-.158.027,0.509,0.509,0,0,0-.262.7c0.063,0.2.127,0.4,0.188,0.6a0.357,0.357,0,0,1-.016.1H11.076c-0.3,0-.594,0-0.891-0.009a0.317,0.317,0,0,1-.179-0.194c-0.1-.261-0.174-0.53-0.26-0.795a0.493,0.493,0,0,0-.482-0.412h0a0.5,0.5,0,0,0-.493.406c-0.092.274-.173,0.553-0.279,0.822a0.3,0.3,0,0,1-.191.175c-0.366.007-.732,0.008-1.109,0.008m9.717-6.608a16.493,16.493,0,0,1-3.372-.244A28.339,28.339,0,0,1,16.9,204a26.075,26.075,0,0,1,3.18.193,12.456,12.456,0,0,1-3.178.256m-4.184-1.062a4.034,4.034,0,0,1,3.5-3.157,4.876,4.876,0,0,1,.619-0.04,4.157,4.157,0,0,1,4.137,3.2,21.113,21.113,0,0,0-4.151-.343,20.921,20.921,0,0,0-4.109.335M10.185,195a0.424,0.424,0,0,0-.439.381,2.178,2.178,0,0,0-.017.358q0,6.045,0,12.089c0,0.124-.011.249-0.018,0.388H7.552l-1.485,0a0.485,0.485,0,0,0-.589.54c0.024,0.26.191,0.381,0.634,0.435-0.348.7-.685,1.361-1.016,2.031a0.481,0.481,0,0,0,.477.772H7.348q0.647,0,1.294,0H8.653a0.6,0.6,0,0,0,.6-0.325A0.64,0.64,0,0,0,9.9,212H9.913c0.653,0,1.306,0,1.959,0h0.834c0.573,0,1.145,0,1.718,0,0.317,0,.635-0.052.953-0.055l0.269,0c0.243,0,.487,0,0.73.006s0.487,0,.73,0c0.425,0,.848-0.008,1.271-0.037a7.728,7.728,0,0,0,1.706-.411,0.78,0.78,0,0,0,.516-0.644q0.572-2.66,1.178-5.311a5.008,5.008,0,0,0,.1-2.592,5.2,5.2,0,0,0-4.536-3.68c-0.172-.015-0.341-0.022-0.506-0.022a5.174,5.174,0,0,0-4.853,3.173,3.656,3.656,0,0,0-.33,1.983c0.145,0.843.369,1.673,0.555,2.509,0.094,0.422.181,0.846,0.273,1.276H10.667v-0.38q0-6.045,0-12.089c0-.1.005-0.2,0-0.3a0.428,0.428,0,0,0-.425-0.42,0.453,0.453,0,0,0-.052,0" transform="translate(-5 -195)"/>
</svg>
