<svg xmlns="http://www.w3.org/2000/svg" width="16" height="16" viewBox="0 0 16 16">
  <defs>
    <style>
      .cls-1 {
        fill: #90a4ae;
        fill-rule: evenodd;
      }
    </style>
  </defs>
  <path id="_07.svg" data-name="07.svg" class="cls-1" d="M14.049,140A8,8,0,1,0,22,148.1,8,8,0,0,0,14.049,140ZM14,149.93A1.976,1.976,0,0,1,12.07,148a1.953,1.953,0,0,1,1.95-1.938,1.921,1.921,0,0,1,1.919,1.922A1.946,1.946,0,0,1,14,149.93Zm5.89-2.844a1.426,1.426,0,0,0-.258.776c-0.04.539-.013,1.082-0.018,1.624a0.627,0.627,0,0,1-.6.7,0.613,0.613,0,0,1-.609-0.654c-0.018-.51-0.005-1.021-0.008-1.531a1.533,1.533,0,0,0-1.689-1.615,0.553,0.553,0,0,1-.517-0.24,2.857,2.857,0,0,0-4.545.216,0.437,0.437,0,0,1-.438.243,1.5,1.5,0,0,0-1.672,1.5c-0.018.207,0,.416-0.018,0.624a0.613,0.613,0,0,1-.556.576,0.6,0.6,0,0,1-.612-0.475,1.354,1.354,0,0,1-.039-0.4A1.609,1.609,0,0,0,7.085,146.6a7.052,7.052,0,0,1,13.757-.314A6.9,6.9,0,0,0,19.894,147.086Zm-4.151-3.17c-0.241-.561-0.471-1.127-0.734-1.678a0.41,0.41,0,0,0-.566-0.178,0.417,0.417,0,0,0-.249.565c0.212,0.561.452,1.113,0.707,1.656a0.4,0.4,0,0,0,.534.2,1.567,1.567,0,0,0,.38-0.381l-0.06-.059A0.409,0.409,0,0,0,15.743,143.916Zm-6.384.377a1.15,1.15,0,0,0-.32-0.3,0.48,0.48,0,0,0-.509.681c0.194,0.46.407,0.912,0.627,1.36a0.468,0.468,0,0,0,.651.241,0.451,0.451,0,0,0,.2-0.639C9.8,145.187,9.6,144.731,9.36,144.293Zm9.711,0.365c-0.36.206-.706,0.441-1.046,0.679a0.445,0.445,0,0,0-.137.63,0.456,0.456,0,0,0,.655.142c0.347-.21.689-0.429,1.015-0.67a0.913,0.913,0,0,0,.2-0.294A0.465,0.465,0,0,0,19.071,144.658Zm-6.657-2.423a0.452,0.452,0,0,0-.624.166c-0.206.325-.394,0.66-0.585,0.993a2.117,2.117,0,0,0-.1.277,1.431,1.431,0,0,0,.323.367,0.4,0.4,0,0,0,.553-0.137q0.332-.508.619-1.045A0.452,0.452,0,0,0,12.414,142.235Zm5.82,1.351a4.5,4.5,0,0,0-.734-0.8,0.439,0.439,0,0,0-.693.325,1.709,1.709,0,0,0,1.034,1.153A0.443,0.443,0,0,0,18.234,143.586Z" transform="translate(-6 -140)"/>
</svg>
